<svg xmlns="http://www.w3.org/2000/svg" width="17.5" height="21.5" viewBox="0 0 17.5 21.5">
  <g id="Group_4280" data-name="Group 4280" transform="translate(-412.25 -127.25)">
    <g id="mobile_twotone" data-name="mobile/twotone" transform="translate(413 128)">
      <g id="vuesax_twotone_mobile" data-name="vuesax/twotone/mobile" transform="translate(-4 -2)">
        <g id="mobile">
          <path id="Vector" d="M16,5V15c0,4-1,5-5,5H5c-4,0-5-1-5-5V5C0,1,1,0,5,0h6C15,0,16,1,16,5Z" transform="translate(4 2)" fill="none" stroke="#EF4036" stroke-linecap="round" stroke-linejoin="round" stroke-width="1.5"/>
          <path id="Vector-2" data-name="Vector" d="M4,0H0" transform="translate(10 5.5)" fill="none" stroke="#EF4036" stroke-linecap="round" stroke-linejoin="round" stroke-width="1.5" opacity="0.4"/>
          <path id="Vector-3" data-name="Vector" d="M3.1,1.55A1.55,1.55,0,1,1,1.55,0,1.55,1.55,0,0,1,3.1,1.55Z" transform="translate(10.45 16)" fill="none" stroke="#EF4036" stroke-linecap="round" stroke-linejoin="round" stroke-width="1.5" opacity="0.4"/>
        </g>
      </g>
    </g>
  </g>
</svg>
